<svg id="Camada_1" data-name="Camada 1" xmlns="http://www.w3.org/2000/svg" viewBox="0 0 383.1 887.58"><defs><style>.cls-1{fill:#f5dac5;}.cls-2{fill:#713d0e;}.cls-3{fill:none;stroke:#713d0e;stroke-linecap:round;stroke-linejoin:round;stroke-width:2px;}.cls-4{fill:#fff;}</style></defs><title>corp2o</title><g id="Camada_1-2" data-name="Camada 1"><path class="cls-1" d="M381.9,591.85l-76.7-277.5c-3.07-9.25-11.35-16.31-20.5-17-.3-.22-.51-1.38-.51-1.38h-59V247.58H158.58V296H98s-.17,1.12-.46,1.31c-9.92-.12-19.21,6.62-22.5,16.54L1.2,591.6a23.43,23.43,0,1,0,44.43,14.92L110.08,373c0,102,8.36,494.51,8.36,494.51s-40.69,6.43-40.69,33.66H156.4l30.43-308.62h6.72l33.3,308.62H305.5c0-27.23-40.69-33.66-40.69-33.66s7.64-393,7.64-496.2l65,235.3a23.4,23.4,0,1,0,44.43-14.73h0Z" transform="translate(0.03 -13.59)"/><path class="cls-1" d="M318.51,139.4c0,70.11-65.79,126.94-126.94,126.94S64.63,209.51,64.63,139.4a126.94,126.94,0,0,1,253.87,0Z" transform="translate(0.03 -13.59)"/><path class="cls-2" d="M231.17,21.82a17.88,17.88,0,0,1,3.71,4.78c16.44,30.22,40.44,55.67,61.25,82.84,7.46,9.73,14.94,19.46,22.35,29.25-.31-56.21-23.82-115.36-88-120.12C250.54,16.61,230.91,20.74,231.17,21.82Z" transform="translate(0.03 -13.59)"/><path class="cls-2" d="M74.92,152.13c9.89,34.59,11.73,38.59,34.73,57.92,23.42,32,127.2,39.66,155.89,4.74,0,0,12.28-10.92,13.16-11.61,46.5-36.1,44.52-79.45,36.26-108.39-1.06-3.73-7.14-34.15-9.09-37.5-11.17-19.17-36.42-45.83-126.42-40.5C109.47,20.94,55.1,93.1,55.1,163.2h0a5.15,5.15,0,0,0,9.4,2.9C67.79,161.24,71.38,156.59,74.92,152.13Z" transform="translate(0.03 -13.59)"/><path class="cls-3" d="M165,214.55" transform="translate(0.03 -13.59)"/><path class="cls-3" d="M215.6,214.55" transform="translate(0.03 -13.59)"/><circle class="cls-1" cx="316.89" cy="144.43" r="18.61"/><circle class="cls-1" cx="63.57" cy="144.43" r="18.62"/><path class="cls-1" d="M54.38,607.26a7.2,7.2,0,0,1-8.61,5.43h0a7.19,7.19,0,0,1-5.42-8.6h0L46.72,576c.88-3.88,3.74-12.33,7.62-11.45l.59,3.56c3.87.88,6.7,7.19,5.83,11.07Z" transform="translate(0.03 -13.59)"/><path class="cls-1" d="M327.76,607.26a7.2,7.2,0,0,0,8.61,5.43h0a7.19,7.19,0,0,0,5.42-8.6h0L335.43,576c-.88-3.88-3.74-12.33-7.62-11.45l-.59,3.56c-3.87.88-6.7,7.19-5.83,11.07Z" transform="translate(0.03 -13.59)"/><path class="cls-4" d="M111.32,544.1H270.68s-.67,29.53-.68,30.5-60.46-.24-76.26,20.94h-6.51s-23.14-19.48-74.82-19.48Z" transform="translate(0.03 -13.59)"/></g></svg>