<svg xmlns="http://www.w3.org/2000/svg" viewBox="0 0 383.09 901.14"><defs><style>.cls-1{isolation:isolate;}.cls-2{fill:#f5dac5;}.cls-3,.cls-5{fill:#433737;}.cls-3{mix-blend-mode:soft-light;}.cls-4{fill:#713d0e;}.cls-6{fill:#efbfac;}.cls-7{fill:none;stroke:#713d0e;stroke-linecap:round;stroke-linejoin:round;stroke-width:2px;}.cls-8{fill:#fff;}</style></defs><title>corpo</title><g class="cls-1"><g id="Camada_1" data-name="Camada 1"><path class="cls-2" d="M695.58,616.85l-76.7-277.5c-3.07-9.25-11.35-16.31-20.5-17-.3-.22-.51-1.38-.51-1.38h-59V272.58H472.26V321h-60.6s-.17,1.12-.46,1.31c-9.92-.12-19.21,6.62-22.5,16.54L314.88,616.6a23.43,23.43,0,1,0,44.43,14.92L423.76,398c0,102,8.36,494.51,8.36,494.51s-40.69,6.43-40.69,33.66h78.65l30.43-308.62h6.72l33.3,308.62h78.65c0-27.23-40.69-33.66-40.69-33.66s7.64-392.95,7.64-496.2l65,235.3a23.4,23.4,0,1,0,44.43-14.73Z" transform="translate(-313.68 -25)"/><path class="cls-2" d="M632.19,164.4c0,70.11-65.79,126.94-126.94,126.94S378.31,234.51,378.31,164.4a126.94,126.94,0,0,1,253.87,0Z" transform="translate(-313.68 -25)"/><path class="cls-3" d="M504.75,284.24a176.17,176.17,0,0,1-59.87-10.46c18.87,11.14,39.87,17.56,60.36,17.56,21,0,42.62-6.77,61.89-18.47A176,176,0,0,1,504.75,284.24Z" transform="translate(-313.68 -25)"/><path class="cls-4" d="M544.85,46.82a17.88,17.88,0,0,1,3.71,4.78C565,81.82,589,107.27,609.81,134.44c7.46,9.73,14.94,19.46,22.35,29.25-.31-56.21-23.82-115.36-88-120.12C564.22,41.61,544.59,45.74,544.85,46.82Z" transform="translate(-313.68 -25)"/><path class="cls-4" d="M394.3,140.86c15.66-19.74,34.23-35.29,59.64-40.74,29.77-6.38,60.71-4.28,90.92-7.06,79.78-7.33,77.86-28.44,89.37-47.62C591.08,50.24,544.47,25,501.41,25A126.93,126.93,0,0,0,374.48,151.93a112.37,112.37,0,0,0,1.3,16.77C380.55,158.69,387.52,149.41,394.3,140.86Z" transform="translate(-313.68 -25)"/><ellipse class="cls-5" cx="145.54" cy="150.94" rx="8.89" ry="13.08"/><ellipse class="cls-5" cx="237.59" cy="150.94" rx="8.89" ry="13.08"/><ellipse class="cls-6" cx="146.57" cy="185.01" rx="17.56" ry="10.97"/><ellipse class="cls-6" cx="236.55" cy="185.01" rx="17.56" ry="10.97"/><path class="cls-7" d="M529.28,239.55c-11.85,17.74-38.75,17.74-50.61,0" transform="translate(-313.68 -25)"/><circle class="cls-2" cx="316.86" cy="158.02" r="18.61"/><circle class="cls-2" cx="63.54" cy="158.02" r="18.62"/><path class="cls-2" d="M368.06,632.26a7.2,7.2,0,0,1-8.61,5.43h0a7.19,7.19,0,0,1-5.42-8.61L360.4,601c.88-3.88,3.74-12.33,7.62-11.45l.59,3.56c3.87.88,6.7,7.19,5.83,11.07Z" transform="translate(-313.68 -25)"/><path class="cls-2" d="M641.44,632.26a7.2,7.2,0,0,0,8.61,5.43h0a7.19,7.19,0,0,0,5.42-8.61L649.11,601c-.88-3.88-3.74-12.33-7.62-11.45l-.59,3.56c-3.87.88-6.7,7.19-5.83,11.07Z" transform="translate(-313.68 -25)"/><path class="cls-8" d="M425,569.1H584.36s-.67,29.53-.68,30.5-60.46-.24-76.26,20.94h-6.51s-23.14-19.48-74.82-19.48Z" transform="translate(-313.68 -25)"/><ellipse class="cls-6" cx="145.5" cy="393.04" rx="6.43" ry="4.27"/><ellipse class="cls-6" cx="237.59" cy="393.04" rx="6.43" ry="4.27"/><circle class="cls-6" cx="191.79" cy="512.75" r="5.7"/></g></g></svg>